<svg xmlns="http://www.w3.org/2000/svg" viewBox="0 0 800 800" width="800" height="800">
  <defs>
    <radialGradient id="cbg7" cx="50%" cy="50%" r="70%">
      <stop offset="0%" stop-color="#FF6F00"/>
      <stop offset="100%" stop-color="#5D2400"/>
    </radialGradient>
    <filter id="cshadow7" x="-10%" y="-10%" width="120%" height="120%">
      <feDropShadow dx="0" dy="6" stdDeviation="10" flood-color="#000" flood-opacity="0.35"/>
    </filter>
    <linearGradient id="cbun7" x1="0" y1="0" x2="0" y2="1">
      <stop offset="0%" stop-color="#D4903A"/>
      <stop offset="100%" stop-color="#A0622A"/>
    </linearGradient>
  </defs>
  <rect width="800" height="800" fill="url(#cbg7)" rx="24"/>
  <circle cx="400" cy="340" r="200" fill="none" stroke="#FFB74D" stroke-opacity="0.06" stroke-width="25"/>
  <!-- Combo meal: mini burger + fries + drink -->
  <g filter="url(#cshadow7)">
    <!-- Mini burger -->
    <g transform="translate(260,310) scale(0.85)">
      <ellipse cx="0" cy="-45" rx="95" ry="40" fill="url(#cbun7)"/>
      <ellipse cx="0" cy="-53" rx="87" ry="23" fill="#E8A94D" opacity="0.4"/>
      <ellipse cx="-28" cy="-60" rx="5" ry="3" fill="#FFF5DC"/>
      <ellipse cx="18" cy="-63" rx="5" ry="3" fill="#FFF5DC"/>
      <ellipse cx="42" cy="-56" rx="5" ry="3" fill="#FFF5DC"/>
      <path d="M-100,-15 Q-70,-26 -40,-12 Q-10,-26 20,-14 Q50,-26 80,-12 Q100,-26 100,-15 L100,-7 Q100,-18 80,-4 Q50,-18 20,-6 Q-10,-18 -40,-4 Q-70,-18 -100,-7 Z" fill="#4CAF50"/>
      <rect x="-95" y="-8" width="190" height="14" fill="#FFC107" rx="2"/>
      <ellipse cx="0" cy="14" rx="88" ry="18" fill="#5D2F0E"/>
      <rect x="-95" y="28" width="190" height="22" fill="url(#cbun7)" rx="4"/>
      <ellipse cx="0" cy="50" rx="95" ry="9" fill="#A0622A"/>
    </g>
    <!-- Fries -->
    <g transform="translate(440,340) scale(0.8)">
      <path d="M-55,10 L-65,85 L65,85 L55,10 Z" fill="#D32F2F"/>
      <text x="0" y="58" text-anchor="middle" font-family="Arial" font-size="18" font-weight="bold" fill="#FFCDD2">JB</text>
      <rect x="-40" y="-48" width="11" height="62" fill="#FFD54F" rx="2" transform="rotate(-10,-34,-17)"/>
      <rect x="-22" y="-55" width="11" height="70" fill="#FFCA28" rx="2" transform="rotate(-3,-16,-20)"/>
      <rect x="-4" y="-52" width="11" height="67" fill="#FFD54F" rx="2" transform="rotate(3,1,-18)"/>
      <rect x="14" y="-46" width="11" height="60" fill="#FFC107" rx="2" transform="rotate(7,19,-16)"/>
      <rect x="30" y="-42" width="11" height="56" fill="#FFD54F" rx="2" transform="rotate(11,35,-14)"/>
    </g>
    <!-- Drink -->
    <g transform="translate(580,315) scale(0.75)">
      <path d="M-35,-45 L-42,90 Q-42,105 0,105 Q42,105 42,90 L35,-45 Z" fill="#D32F2F"/>
      <path d="M-35,-45 L35,-45 L33,-40 L-33,-40 Z" fill="#B71C1C"/>
      <text x="0" y="35" text-anchor="middle" font-family="Arial" font-size="18" font-weight="bold" fill="#FFCDD2">JB</text>
      <ellipse cx="0" cy="-45" rx="37" ry="9" fill="#E0E0E0"/>
      <rect x="-2" y="-90" width="5" height="50" fill="#BDBDBD" rx="1"/>
    </g>
  </g>
  <!-- Value badge -->
  <g transform="translate(150,170)">
    <circle r="48" fill="#FFC107" opacity="0.9"/>
    <text x="0" y="-8" text-anchor="middle" font-family="Arial" font-size="13" font-weight="bold" fill="#5D2F0E">BEST</text>
    <text x="0" y="10" text-anchor="middle" font-family="Arial" font-size="14" font-weight="bold" fill="#5D2F0E">VALUE</text>
  </g>
  <!-- Label -->
  <rect x="190" y="525" width="420" height="70" fill="#000" fill-opacity="0.35" rx="35"/>
  <text x="400" y="568" text-anchor="middle" font-family="Georgia, serif" font-size="36" font-weight="bold" fill="#fff">Combos &amp; Meals</text>
  <text x="400" y="645" text-anchor="middle" font-family="Arial, sans-serif" font-size="20" fill="#FFB74D" letter-spacing="4" opacity="0.8">COMPLETE THE MEAL</text>
</svg>