<svg xmlns="http://www.w3.org/2000/svg" viewBox="0 0 800 800" width="800" height="800">
  <defs>
    <radialGradient id="cbg5" cx="50%" cy="50%" r="70%">
      <stop offset="0%" stop-color="#FFC107"/>
      <stop offset="100%" stop-color="#8B5A00"/>
    </radialGradient>
    <filter id="cshadow5" x="-10%" y="-10%" width="120%" height="120%">
      <feDropShadow dx="0" dy="6" stdDeviation="10" flood-color="#000" flood-opacity="0.35"/>
    </filter>
  </defs>
  <rect width="800" height="800" fill="url(#cbg5)" rx="24"/>
  <circle cx="400" cy="340" r="190" fill="none" stroke="#FFF176" stroke-opacity="0.08" stroke-width="30"/>
  <!-- Fries -->
  <g transform="translate(310,320)" filter="url(#cshadow5)">
    <path d="M-70,15 L-85,110 L85,110 L70,15 Z" fill="#D32F2F"/>
    <text x="0" y="75" text-anchor="middle" font-family="Arial" font-size="22" font-weight="bold" fill="#FFCDD2">JB</text>
    <rect x="-55" y="-65" width="13" height="85" fill="#FFD54F" rx="3" transform="rotate(-12,-48,-22)"/>
    <rect x="-32" y="-78" width="13" height="98" fill="#FFCA28" rx="3" transform="rotate(-5,-25,-29)"/>
    <rect x="-10" y="-82" width="13" height="102" fill="#FFD54F" rx="3" transform="rotate(2,-3,-31)"/>
    <rect x="12" y="-72" width="13" height="92" fill="#FFC107" rx="3" transform="rotate(6,18,-26)"/>
    <rect x="34" y="-68" width="13" height="88" fill="#FFD54F" rx="3" transform="rotate(11,40,-24)"/>
  </g>
  <!-- Onion rings -->
  <g transform="translate(530,340)" filter="url(#cshadow5)">
    <ellipse cx="0" cy="20" rx="50" ry="20" fill="none" stroke="#D4903A" stroke-width="16"/>
    <ellipse cx="0" cy="20" rx="50" ry="20" fill="none" stroke="#E8A94D" stroke-width="9" opacity="0.4"/>
    <ellipse cx="-25" cy="-10" rx="45" ry="18" fill="none" stroke="#C88030" stroke-width="15" transform="rotate(10,-25,-10)"/>
    <ellipse cx="-25" cy="-10" rx="45" ry="18" fill="none" stroke="#D4903A" stroke-width="8" opacity="0.4" transform="rotate(10,-25,-10)"/>
    <ellipse cx="20" cy="-5" rx="42" ry="16" fill="none" stroke="#D4903A" stroke-width="14" transform="rotate(-8,20,-5)"/>
    <ellipse cx="20" cy="-5" rx="42" ry="16" fill="none" stroke="#E8A94D" stroke-width="8" opacity="0.4" transform="rotate(-8,20,-5)"/>
  </g>
  <!-- Label -->
  <rect x="200" y="525" width="400" height="70" fill="#000" fill-opacity="0.35" rx="35"/>
  <text x="400" y="568" text-anchor="middle" font-family="Georgia, serif" font-size="36" font-weight="bold" fill="#fff">Sides &amp; Fries</text>
  <text x="400" y="645" text-anchor="middle" font-family="Arial, sans-serif" font-size="20" fill="#FFF176" letter-spacing="4" opacity="0.8">PERFECT COMPANIONS</text>
</svg>